PathFileType	4	(X/Y/Z)	C:/Users/opensim2020/Desktop/walking_exp_matlab/subject02_walking11_straight_03.trc	
DataRate	CameraRate	NumFrames	NumMarkers	Units	OrigDataRate	OrigDataStartFrame	OrigNumFrames	
100.00	100.00	8	42	mm	100.00	2411	250	
Frame#	Time	LFHD			RFHD			LBHD			RBHD			C7			T10			CLAV			STRN			RBAK			LSHO			LUPA			LELB			LFRM			LWRA			LWRB			LFIN			RSHO			RUPA			RELB			RFRM			RWRA			RWRB			RFIN			LASI			RASI			LPSI			RPSI			LTHI			LKNE			LTIB			LANK			LHEE			LTOE			RTHI			RKNE			RTIB			RANK			RHEE			RTOE			*39			*40			*41			
		X1	Y1	Z1	X2	Y2	Z2	X3	Y3	Z3	X4	Y4	Z4	X5	Y5	Z5	X6	Y6	Z6	X7	Y7	Z7	X8	Y8	Z8	X9	Y9	Z9	X10	Y10	Z10	X11	Y11	Z11	X12	Y12	Z12	X13	Y13	Z13	X14	Y14	Z14	X15	Y15	Z15	X16	Y16	Z16	X17	Y17	Z17	X18	Y18	Z18	X19	Y19	Z19	X20	Y20	Z20	X21	Y21	Z21	X22	Y22	Z22	X23	Y23	Z23	X24	Y24	Z24	X25	Y25	Z25	X26	Y26	Z26	X27	Y27	Z27	X28	Y28	Z28	X29	Y29	Z29	X30	Y30	Z30	X31	Y31	Z31	X32	Y32	Z32	X33	Y33	Z33	X34	Y34	Z34	X35	Y35	Z35	X36	Y36	Z36	X37	Y37	Z37	X38	Y38	Z38	X39	Y39	Z39	X40	Y40	Z40	X41	Y41	Z41	X42	Y42	Z42	

32	0.310	1468.51465	-690.06110	1756.37903	1611.32715	-690.23712	1734.27478	1453.78149	-796.65808	1651.63159	1594.10461	-808.98804	1624.93542	1519.54419	-828.61530	1524.06665	1528.10803	-890.90350	1254.18188	1508.40039	-690.18695	1456.78345	1512.36462	-644.78516	1280.07031	1584.35779	-891.26404	1356.07764	1339.34839	-753.11786	1505.48608	1255.44751	-766.73688	1305.65613	1245.73950	-772.55103	1165.05969	1227.82910	-768.89197	1034.98694	1257.77100	-722.05109	904.79559	1221.00989	-763.85455	911.90125	1217.44556	-750.13031	846.11853	1705.62354	-747.74390	1484.59314	1788.50537	-780.10101	1291.68982	1803.34155	-767.86377	1146.16931	1828.88062	-739.97821	1032.15161	1820.01233	-686.84790	906.47345	1844.30859	-736.91125	902.38501	1855.83423	-698.73669	841.95795	1380.21106	-682.15961	982.04010	1635.03784	-655.85382	976.40741	1481.46313	-881.48718	1029.93542	1596.64319	-874.37750	1034.47278	1314.75342	-723.38177	674.27765	1326.87463	-725.44476	488.92664	1348.60852	-865.40216	369.32513	1380.27173	-983.07379	181.49989	1441.72974	-1011.45679	169.09090	1326.16553	-893.11871	67.02020	1707.21130	-711.48883	674.69824	1666.48926	-706.18500	464.09952	1677.16357	-748.06573	279.58389	1640.00110	-773.45905	87.72276	1587.33337	-812.46881	33.78780	1650.39001	-621.44586	34.29398	1556.01721	-807.17987	1791.73560	-3360.36353	2845.14868	1034.26465			 
33	0.320	1469.31335	-682.37543	1756.94592	1612.19409	-682.42242	1735.17468	1454.89368	-788.91919	1652.07263	1595.29395	-801.13641	1625.73083	1521.52832	-820.85339	1524.96216	1530.76978	-883.66431	1255.19312	1509.61230	-682.61017	1457.32007	1513.90271	-637.21375	1280.70691	1587.42358	-883.41498	1357.50940	1340.91248	-746.51514	1505.76257	1257.12183	-763.45605	1306.46338	1247.53064	-769.94293	1165.68933	1229.14099	-768.10870	1035.46289	1257.92883	-722.75464	904.72083	1221.79236	-764.59344	912.35492	1217.90808	-751.91602	846.56982	1707.05090	-738.59009	1485.90381	1790.85950	-769.16516	1293.21301	1806.15466	-756.02991	1147.69678	1831.05432	-726.74731	1033.82166	1821.98669	-672.27533	908.84222	1846.81592	-722.09131	904.19287	1857.99243	-682.96515	844.30389	1382.03308	-675.29889	983.75989	1636.29846	-649.79401	976.86108	1483.03918	-874.49377	1030.97949	1598.18372	-867.42828	1034.76440	1315.15698	-712.33472	676.25049	1327.69397	-711.17322	490.56668	1350.56250	-848.82214	367.83469	1382.70825	-961.19519	176.82823	1444.25330	-988.82922	162.96532	1327.89575	-867.78021	65.91891	1707.82532	-707.85632	674.42596	1667.16431	-704.41998	463.65973	1677.37427	-747.00592	279.53632	1639.73315	-773.51099	87.64371	1587.17139	-812.50568	34.07616	1650.34509	-621.51465	34.11755	1556.85254	-799.49121	1792.44971	-3357.53052	2846.00244	1034.33923			 
34	0.330	1469.98560	-674.72089	1757.47473	1612.89075	-674.63916	1736.01917	1455.91809	-781.26044	1652.48267	1596.38293	-793.27448	1626.43030	1523.37354	-813.18158	1525.76099	1533.24121	-876.46167	1256.07861	1510.70813	-675.11804	1457.82202	1514.68103	-630.79645	1280.86560	1589.87109	-875.68378	1358.34180	1342.36987	-740.02625	1505.99670	1258.95483	-758.15277	1306.48059	1249.10657	-767.59540	1166.32446	1230.66846	-767.23163	1036.08655	1258.39478	-722.96204	904.82013	1222.56421	-765.45142	913.09863	1218.25391	-753.48871	846.93365	1708.39648	-729.56915	1487.20520	1793.19556	-758.27039	1294.64502	1808.73352	-743.99048	1149.26526	1833.35010	-713.33258	1035.63538	1823.68628	-657.62317	911.03912	1849.21057	-707.21985	906.06360	1860.12354	-667.27869	846.74200	1383.81506	-668.34344	985.35162	1638.07043	-642.87079	977.62732	1484.29724	-867.45740	1031.94409	1599.53479	-860.50208	1034.97375	1315.35608	-701.99286	678.54681	1328.45801	-697.19019	492.04691	1351.99646	-832.01318	365.69434	1384.68799	-938.62408	171.44992	1446.34753	-965.62451	156.39531	1329.48376	-841.23773	64.11519	1708.73962	-704.25476	674.27368	1667.61768	-702.67719	463.54468	1677.63721	-746.23615	279.49377	1639.89124	-773.26044	87.78186	1587.01428	-812.53253	34.17870	1650.41858	-621.55444	34.05718	1557.54553	-791.77924	1793.09607	-3360.31567	2845.27881	1034.19507			 
35	0.340	1470.56165	-667.10614	1757.87158	1613.51367	-666.83746	1736.72302	1456.84290	-773.56769	1652.77075	1597.35706	-785.41083	1627.07727	1525.17908	-805.60468	1526.41553	1535.55493	-869.28619	1256.83850	1511.76489	-667.64172	1458.23730	1516.25720	-623.17108	1281.39429	1592.49084	-867.55457	1359.16431	1343.72034	-733.55157	1506.10474	1260.37817	-754.57245	1306.97107	1250.66382	-765.03729	1166.90881	1231.42505	-766.63910	1036.79993	1258.69592	-723.06287	905.00494	1223.33276	-765.98480	913.63361	1219.04651	-754.44690	847.25470	1709.55481	-720.72791	1488.43372	1795.30725	-747.36414	1296.00439	1811.19055	-731.97375	1150.76489	1835.65759	-699.69263	1037.51843	1825.27185	-643.06555	913.41840	1851.49280	-692.20624	907.95581	1862.16333	-651.43304	849.10101	1385.68518	-661.05005	987.17072	1640.20618	-635.34070	978.48444	1485.43079	-860.29486	1032.79309	1600.70544	-853.63123	1035.16382	1315.70471	-691.49207	680.49872	1329.09448	-683.76294	493.45663	1352.89722	-814.96857	363.01859	1386.18921	-915.28308	165.33673	1447.48572	-942.25244	149.52264	1331.02393	-813.62830	62.21209	1709.45776	-700.30548	673.98132	1668.45032	-700.87244	463.50934	1677.86768	-745.75562	279.50415	1639.85596	-773.14734	87.84834	1586.92383	-812.56030	34.28476	1650.54272	-621.66974	34.02981	1558.17529	-784.06049	1793.59802	-3360.29248	2845.22656	1034.20813			 
36	0.350	1471.07141	-659.41595	1758.21912	1614.03271	-659.06635	1737.33228	1457.64099	-765.88861	1653.06995	1598.21497	-777.56158	1627.63306	1526.88489	-798.10553	1526.96484	1537.73718	-862.18671	1257.50085	1512.67883	-660.26831	1458.62463	1517.35071	-616.19586	1281.66284	1594.98596	-860.02496	1360.13867	1344.96497	-727.13654	1506.09448	1261.94116	-749.92273	1307.14185	1252.25903	-762.08160	1167.38000	1232.49561	-765.38831	1037.40674	1258.63806	-723.44934	905.02502	1223.91638	-766.74261	914.26050	1219.16235	-755.63153	847.82294	1710.61292	-712.07788	1489.51245	1797.31921	-736.60114	1297.31433	1813.43884	-719.91125	1152.10181	1837.70508	-686.15326	1039.26819	1826.64233	-628.40546	915.79425	1853.60010	-677.18799	909.77405	1863.93225	-635.56720	851.48175	1387.88965	-653.88971	988.85541	1641.86877	-628.60803	978.75403	1486.46973	-853.21198	1033.62341	1601.74133	-846.76740	1035.26636	1315.96240	-681.57428	682.53735	1329.75757	-670.59814	494.70584	1353.42126	-797.73895	359.82553	1387.17017	-891.13757	158.56674	1448.67017	-917.29584	141.53621	1331.85437	-785.64313	60.08976	1710.09460	-696.32843	673.75848	1668.98181	-699.09869	463.06723	1678.06824	-745.23767	279.57803	1639.77673	-773.05231	87.91931	1586.79688	-812.50342	34.34320	1650.72412	-621.65863	33.98304	1558.71741	-776.34052	1794.02869	-3360.24219	2845.30127	1034.17468			 
37	0.360	1471.42700	-651.80383	1758.47546	1614.40906	-651.28900	1737.82495	1458.34521	-758.23187	1653.12305	1599.02563	-769.74927	1628.08203	1528.40723	-790.58899	1527.39612	1539.69067	-855.06885	1258.05640	1513.53015	-652.97742	1458.93042	1518.71533	-608.79535	1282.00232	1597.02258	-852.29828	1360.55396	1346.20471	-721.03394	1506.05859	1263.15369	-747.01917	1307.71216	1253.59167	-759.52332	1167.73779	1233.78882	-764.14545	1037.73877	1258.83826	-723.26233	905.23016	1224.72632	-767.20276	914.95129	1219.72168	-756.19287	848.16620	1711.69116	-703.28229	1490.58032	1799.16748	-725.85400	1298.57129	1815.61084	-707.81140	1153.33691	1839.57544	-672.64111	1040.93799	1828.10974	-613.61316	918.07166	1855.56970	-662.13806	911.59955	1865.52576	-619.70331	853.82214	1389.91235	-646.76971	990.25507	1643.14136	-622.66479	978.25323	1487.42212	-846.25787	1034.41541	1602.68030	-839.96606	1035.26807	1316.30615	-671.40350	684.12274	1330.43555	-657.76086	495.75851	1353.46155	-780.25592	356.08612	1387.71814	-866.36200	151.60016	1449.09814	-891.83301	133.26961	1332.28943	-756.90033	57.75314	1710.58203	-692.18939	673.50922	1669.23267	-697.54749	462.74603	1678.22400	-744.67505	279.62283	1639.62695	-772.92828	88.00160	1586.62390	-812.45013	34.43876	1650.82532	-621.64954	33.95080	1559.15198	-768.63770	1794.36011	-3357.32715	2845.94556	1034.20044			 
38	0.370	1471.65894	-644.30396	1758.62549	1614.72925	-643.51874	1738.23291	1458.97351	-750.61487	1653.30554	1599.64197	-762.02924	1628.45593	1529.80334	-783.18933	1527.70947	1541.46045	-847.90417	1258.45630	1514.18225	-645.71069	1459.20203	1519.48242	-602.07837	1282.00891	1599.36072	-844.59076	1361.30359	1347.29297	-714.99805	1505.89233	1264.40845	-742.71802	1307.52930	1254.98206	-756.65149	1168.05396	1234.66675	-763.18298	1038.35913	1258.68945	-723.54938	904.93445	1225.46326	-767.03009	915.28436	1219.76379	-757.05286	848.68622	1712.51819	-694.71881	1491.45703	1800.70557	-715.31848	1299.44995	1817.63037	-695.76398	1154.67065	1841.25818	-659.13190	1042.53442	1829.09424	-599.12262	920.23438	1857.36157	-646.99078	913.31714	1866.91370	-603.78613	856.05884	1391.51501	-639.20685	991.71613	1645.45959	-614.63617	978.87408	1488.29639	-838.95624	1034.93250	1603.56702	-833.20093	1035.30200	1316.62097	-661.59497	685.69464	1331.19482	-645.28943	496.70511	1353.35876	-762.76941	351.87268	1387.73511	-840.89105	144.05878	1449.16321	-865.99603	124.84704	1332.24011	-727.51660	55.28664	1710.76233	-687.58984	673.10266	1669.78699	-695.54089	462.69647	1678.28748	-743.93298	279.73352	1639.48962	-772.78168	88.15092	1586.25427	-812.63190	34.55038	1650.95349	-621.65527	33.89188	1559.49695	-760.86237	1794.56360	-3357.43311	2845.86963	1034.17053			 
39	0.380	1471.85852	-636.66742	1758.66260	1614.88464	-635.72345	1738.48169	1459.51025	-743.07184	1653.31348	1600.17712	-754.26660	1628.70593	1531.16602	-775.84650	1527.97119	1543.11438	-840.78351	1258.73694	1514.89490	-638.41089	1459.34937	1520.56360	-594.89960	1282.21118	1601.40479	-836.87500	1361.70459	1348.26660	-709.04584	1505.59924	1265.81519	-738.32416	1307.53992	1256.16125	-753.89215	1168.26147	1235.59155	-762.12476	1038.78625	1258.91052	-722.52014	905.19940	1225.97192	-767.18903	915.58856	1220.09265	-757.09283	849.20081	1713.29492	-686.31427	1492.24536	1802.41785	-704.63080	1300.61719	1819.45447	-683.68823	1155.76294	1842.72412	-645.72119	1043.92981	1830.19580	-584.24890	922.48053	1859.08960	-631.87805	915.05658	1868.12854	-587.88336	858.30310	1393.13989	-631.80560	992.73572	1646.99341	-607.82611	978.51813	1489.18103	-831.95264	1035.42981	1604.32837	-826.33972	1035.15344	1316.84875	-652.32117	687.43695	1331.87598	-633.23987	497.44907	1353.20142	-745.21417	347.30685	1387.24414	-814.80054	136.33875	1448.56873	-838.92865	115.63074	1331.39270	-697.63458	53.14397	1711.04492	-683.38263	672.74493	1669.79700	-693.58685	462.26666	1678.31519	-742.95020	279.82654	1639.35266	-772.53748	88.29826	1586.07959	-812.15637	34.47876	1651.06116	-621.62878	33.90968	1559.78918	-753.21844	1794.78210	-3360.25732	2845.17944	1034.27344			 
